<svg class="hands" xmlns="http://www.w3.org/2000/svg" viewBox="0 0 160 160">
  <style>
    .shooter {
      transform-origin: 0% 100%;
      animation: shooter 1.5s cubic-bezier(0.83, -0.35, 0.02, 1.33) infinite;
    }

    .confetti1 {
      transform-origin: 50% 50%;
      animation: confetti15 1.5s cubic-bezier(0.83, -0.35, 0.02, 1.33) infinite;
    }
    .confetti2 {
      transform-origin: 50% 50%;
      animation: confetti2 1.5s cubic-bezier(0.83, -0.35, 0.02, 1.33) .1s infinite;
    }
    .confetti3 {
      transform-origin: 50% 50%;
      animation: confetti34 1.5s cubic-bezier(0.83, -0.35, 0.02, 1.33) infinite;
    }
        .confetti4 {
      transform-origin: 50% 50%;
      animation: confetti34 1.5s cubic-bezier(0.83, -0.35, 0.02, 1.33) .1s infinite;
    }
        .confetti5 {
      transform-origin: 50% 50%;
      animation: confetti15 1.5s cubic-bezier(0.83, -0.35, 0.02, 1.33) .1s infinite;
    }
    .confetti6 {
      transform-origin: 50% 50%;
      animation: confetti6 1.5s cubic-bezier(0.83, -0.35, 0.02, 1.33) .1s infinite;
    }
        .confetti7 {
      transform-origin: 50% 50%;
      animation: confetti7 1.5s cubic-bezier(0.83, -0.35, 0.02, 1.33) infinite;
    }
    
            .confetti8 {
      transform-origin: 50% 50%;
      animation: confetti7 1.5s cubic-bezier(0.83, -0.35, 0.02, 1.33) .1s infinite;
    }
                .confetti9 {
      transform-origin: 50% 50%;
      animation: confetti7 1.5s cubic-bezier(0.83, -0.35, 0.02, 1.33) infinite;
    }

    @keyframes shooter {
      0% {
        transform: scale(0.7);
      }
      50% {
        transform: scale(1);
      }
      80% {
        transform: scale(1);
        animation-timing-function: cubic-bezier(0.79, 0.01, 0.41, 1);
      }
      100% {
        transform: scale(0.7);
      }
    }

    @keyframes confetti15 {
      0% {
        transform: scale(0.2) translate(10px, 40px) rotate(0deg);
        opacity: 0;
      }
      50% {
        transform: scale(1) translate(0px, 0px) rotate(-15deg);
        opacity: 1;
      }
      80% {
        transform: scale(1) translate(0px, 0px) rotate(-15deg);
        opacity: 1;
        animation-timing-function: cubic-bezier(0.79, 0.01, 0.41, 1);
      }
      100% {
        transform: scale(1.1) translate(-25px, 0px) rotate(-90deg);
        opacity: 0;
      }
    }
        @keyframes confetti6 {
      0% {
        transform: scale(0.2) translate(0px, 0px) rotate(0deg);
        opacity: 0;
      }
      50% {
        transform: scale(1) translate(0px, 0px) rotate(-15deg);
        opacity: 1;
      }
      80% {
        transform: scale(1) translate(0px, 0px) rotate(-15deg);
        opacity: 1;
        animation-timing-function: cubic-bezier(0.79, 0.01, 0.41, 1);
      }
      100% {
        transform: scale(1.1) translate(-25px, 0px) rotate(-90deg);
        opacity: 0;
      }
    }
            @keyframes confetti7 {
      0% {
        transform: scale(0.2) translate(0px, 0px);
        opacity: 0;
      }
      50% {
        transform: scale(1) translate(0px, 0px);
        opacity: 1;
      }
      80% {
        transform: scale(1) translate(0px, 0px);
        opacity: 1;
        animation-timing-function: cubic-bezier(0.79, 0.01, 0.41, 1);
      }
      100% {
        transform: scale(1.1) translate(-5px, 25px);
        opacity: 0;
      }
    }
    
    @keyframes confetti2 {
      0% {
        transform: scale(0.2) translate(-40px, -20px) rotate(-90deg);
        opacity: 0;
      }
      50% {
        transform: scale(1) translate(0px, 0px) rotate(0deg);
        opacity: 1;
      }
      80% {
        transform: scale(1) translate(0px, 0px) rotate(0deg);
        opacity: 1;
        animation-timing-function: cubic-bezier(0.79, 0.01, 0.41, 1);
      }
      100% {
        transform: scale(0.8) translate(30px, 60px) rotate(45deg);
        opacity: 0;
      }
    }
    
        @keyframes confetti34 {
      0% {
        transform: scale(0.2) translate(-20px, 20px) rotate(-90deg);
        opacity: 0;
      }
      50% {
        transform: scale(1) translate(0px, 0px) rotate(0deg);
        opacity: 1;
      }
      80% {
        transform: scale(1) translate(0px, 0px) rotate(0deg);
        opacity: 1;
        animation-timing-function: cubic-bezier(0.79, 0.01, 0.41, 1);
      }
      100% {
        transform: scale(0.8) translate(5px, 5px) rotate(45deg);
        opacity: 0;
      }
    }
  </style>
<g class="shooter">
  <path fill="#FCCF4B" stroke="#121212" stroke-linejoin="round" stroke-width="6" d="M103.37 92.973a3 3 0 0 0 .618-2.108c-.838-9.325-7.54-18.65-16.291-25.81-8.83-7.224-20.29-12.706-31.563-14.034a3 3 0 0 0-2.872 1.353c-10.11 15.682-18.67 33.13-22.812 60.582-.542 3.589 1.376 6.508 3.897 8.048 2.484 1.518 5.861 1.918 8.85.394 7.366-3.755 14.73-5.667 22.24-7.617 2.925-.759 5.874-1.525 8.853-2.407 10.462-3.099 20.663-7.55 29.08-18.401Z"/>
  <path fill="#C6A033" d="M56 54c5 21.5 28.5 35 45 37-1.461-16.28-24.5-34.5-45-37Z"/>
  </g>
  

  <path class="confetti1" stroke="#121212" stroke-width="12px" paint-order="stroke" stroke-linejoin="round" fill="#6084EE" fill-rule="evenodd" d="M67.267 49.843a7.746 7.746 0 0 1-1.468.802c-1.49.614-3.196.739-4.59.1-1.504-.69-2.573-1.72-3.114-2.959-.54-1.234-.5-2.562.021-3.677a4.245 4.245 0 0 1 2.796-2.32c1.294-.336 2.716-.078 4.07.737a15.52 15.52 0 0 1 2.339 1.712c.757-2.385.55-6.345-2.874-12.313l2.946-1.69c4.322 7.532 4.448 13.13 2.417 16.775a9.46 9.46 0 0 1-.083.146 10.752 10.752 0 0 1 1.367 3.993c.434 3.215-.56 6.42-2.175 9.023l-2.887-1.791c1.314-2.118 1.998-4.537 1.696-6.778a7.395 7.395 0 0 0-.461-1.76Zm-4.642-2.186c.308.141.998.21 1.881-.153.28-.115.564-.269.841-.463a11.71 11.71 0 0 0-2.116-1.604c-.723-.436-1.214-.426-1.47-.36a.849.849 0 0 0-.568.47c-.106.229-.135.537.015.879.147.337.523.821 1.417 1.231Z" clip-rule="evenodd"/>

  
  <path class="confetti2" stroke="#121212" stroke-width="12px" paint-order="stroke" stroke-linejoin="round" fill="#87E894" fill-rule="evenodd" d="M77.625 120.42a7.736 7.736 0 0 1-.196 1.661c-.363 1.571-1.249 3.034-2.576 3.8-1.434.828-2.893 1.102-4.216.826-1.319-.275-2.379-1.076-2.986-2.146a4.244 4.244 0 0 1-.273-3.623c.476-1.249 1.51-2.26 2.959-2.892.94-.41 1.858-.712 2.75-.915-1.507-1.998-4.855-4.123-11.703-4.787l.327-3.381c8.644.838 13.28 3.978 15.076 7.743l.072.153c1.455.133 2.811.549 4.047 1.198 2.871 1.508 4.91 4.174 6.096 6.998l-3.132 1.316c-.966-2.298-2.541-4.255-4.543-5.307a7.411 7.411 0 0 0-1.702-.644Zm-4.47 2.519c.293-.169.749-.691.964-1.622.068-.295.107-.615.11-.954-.794.147-1.638.406-2.534.797-.773.337-1.05.743-1.144.989a.849.849 0 0 0 .055.736c.124.219.359.421.724.497.36.075.973.049 1.825-.443Z" clip-rule="evenodd"/>
 
<path class="confetti3" fill="#87E894" stroke="#121212" stroke-linejoin="round" stroke-width="6" d="M96.904 86.075c.029-.017.165-.1.402-.23.329-.18.85-.452 1.547-.774a37.725 37.725 0 0 1 6.152-2.184c5.317-1.401 12.871-2.252 21.758.024a3 3 0 0 0 3.666-2.225l.866-3.716a3 3 0 0 0-2.177-3.587c-10.776-2.76-20.019-1.739-26.583-.009-3.5.922-7.379 2.217-10.757 4.34h-.002a3.001 3.001 0 0 0-1.298 3.324c.058.213.127.373.145.415v.002a5.477 5.477 0 0 0 .225.436c.066.115.154.263.247.419.189.316.441.733.686 1.137l.002.003c.248.409.489.805.666 1.101l.175.296a3 3 0 0 0 4.265 1.237l.015-.009ZM93.72 80.99Z"/>
  
  
  <path class="confetti4" stroke="#121212" stroke-width="12px" paint-order="stroke" stroke-linejoin="round" fill="#EEBD4B" fill-rule="evenodd" d="M107.042 48.184a7.736 7.736 0 0 1-.225-1.657 7.385 7.385 0 0 0-1.691.673c-1.983 1.086-3.524 3.072-4.449 5.386a13.362 13.362 0 0 0-.722 2.467c1.423.098 2.749.545 3.878 1.307 2.297 1.55 3.11 3.872 2.725 5.88-.355 1.853-1.963 3.829-4.416 3.414-3.138-.53-4.873-2.953-5.499-5.654a11.033 11.033 0 0 1-.166-.88c-2.393 1.054-5.02 3.569-6.996 8.617l-3.164-1.238c2.48-6.334 6.366-9.833 10.135-11.01.17-1.404.534-2.821 1.07-4.164 1.137-2.844 3.128-5.546 5.972-7.104a10.761 10.761 0 0 1 4.026-1.268c.022-.052.045-.103.069-.155 1.729-3.796 6.309-7.017 14.937-8.006l.387 3.374c-6.835.785-10.146 2.968-11.617 4.992.895.187 1.818.473 2.766.867 1.46.606 2.511 1.598 3.009 2.839a4.242 4.242 0 0 1-.21 3.627c-.588 1.081-1.634 1.9-2.947 2.199-1.318.299-2.782.05-4.23-.752-1.341-.743-2.252-2.19-2.642-3.754Zm3.296-.823c.231.928.696 1.441.992 1.605.86.477 1.474.492 1.832.41.364-.082.595-.288.716-.509a.847.847 0 0 0 .041-.736c-.098-.245-.381-.646-1.161-.97a11.666 11.666 0 0 0-2.546-.752c.007.339.052.659.126.952Zm-9.45 11.647c.955.025 1.557.368 1.782.621.651.737.799 1.333.797 1.7-.001.373-.152.644-.342.809a.848.848 0 0 1-.71.2c-.261-.043-.713-.233-1.198-.923-.561-.8-.983-1.575-1.286-2.324.332-.065.654-.09.957-.083Z" clip-rule="evenodd"/>
  
  <path class="confetti5" fill="#F46F73" stroke="#121212" stroke-linejoin="round" stroke-width="6" d="M82 36h13v12H82z"/>
  <path class="confetti6" fill="#F46F73" stroke="#121212" stroke-linejoin="round" stroke-width="6" d="M39 68h13v12H39z"/>
  <circle class="confetti7" cx="66.5" cy="89.5" r="6.5" fill="#6084EE" stroke="#121212" stroke-linejoin="round" stroke-width="6"/>
  <circle class="confetti8" cx="102.5" cy="113.5" r="6.5" fill="#F46F73" stroke="#121212" stroke-linejoin="round" stroke-width="6"/>
  <circle class="confetti9" cx="35" cy="57" r="6" fill="#EEBD4B" stroke="#121212" stroke-linejoin="round" stroke-width="6"/>

</svg>
